<?xml version="1.0" standalone="no"?>
<!DOCTYPE svg PUBLIC "-//W3C//DTD SVG 20010904//EN"
 "http://www.w3.org/TR/2001/REC-SVG-20010904/DTD/svg10.dtd">
<svg version="1.0" xmlns="http://www.w3.org/2000/svg"
 width="754.000000pt" height="749.000000pt" viewBox="0 0 754.000000 749.000000"
 preserveAspectRatio="xMidYMid meet">
<metadata>
Created by potrace 1.16, written by Peter Selinger 2001-2019
</metadata>
<g transform="translate(0.000000,749.000000) scale(0.100000,-0.100000)"
fill="#000000" stroke="none">
<path d="M3545 7483 c-300 -16 -681 -89 -980 -188 -847 -282 -1588 -876 -2039
-1635 -268 -451 -426 -908 -502 -1445 -21 -155 -30 -607 -15 -787 87 -1019
586 -1953 1386 -2595 559 -449 1208 -720 1935 -810 179 -22 665 -25 835 -5
899 104 1664 469 2285 1092 420 419 717 897 900 1448 147 442 198 791 187
1280 -6 266 -17 384 -58 597 -215 1142 -949 2116 -1994 2645 -596 303 -1254
439 -1940 403z m285 -262 l0 -38 -92 -7 c-50 -3 -120 -6 -155 -6 l-63 0 0 45
0 45 155 0 155 0 0 -39z m320 21 l75 -7 -3 -40 c-2 -22 -5 -41 -6 -42 -1 -2
-69 3 -152 10 -161 13 -164 15 -150 73 7 28 -16 28 236 6z m-716 -14 c17 -65
19 -64 -141 -85 -82 -11 -151 -18 -155 -16 -5 2 -8 21 -8 42 l0 38 143 21 c78
11 145 20 148 21 4 1 9 -9 13 -21z m1060 -40 l118 -22 -5 -39 c-3 -21 -7 -41
-9 -43 -6 -5 -287 51 -295 59 -3 3 -2 23 1 43 7 35 9 36 39 30 18 -4 85 -16
151 -28z m-1445 -35 c6 -21 7 -40 3 -44 -4 -3 -71 -22 -149 -41 l-143 -36 -11
40 c-5 22 -9 41 -7 43 3 2 276 72 290 74 4 1 12 -16 17 -36z m1820 -65 l123
-39 -6 -32 c-4 -17 -10 -35 -14 -39 -8 -8 -269 67 -286 82 -4 5 -3 24 4 44 10
31 15 36 33 30 12 -4 78 -24 146 -46z m-2199 -44 c7 -19 10 -37 8 -38 -2 -2
-158 -60 -274 -103 -13 -5 -40 64 -29 75 10 11 248 101 267 101 10 1 21 -12
28 -35z m2550 -89 c67 -31 126 -58 131 -60 9 -6 -9 -62 -23 -71 -7 -5 -253 95
-276 112 -9 6 21 74 32 74 7 0 68 -25 136 -55z m-2916 -51 c9 -20 16 -38 14
-39 -9 -8 -271 -136 -273 -133 -8 10 -36 70 -33 73 6 5 263 134 269 134 3 1
13 -15 23 -35z m3274 -133 c67 -40 122 -77 122 -82 0 -15 -31 -59 -42 -59 -11
0 -258 143 -258 150 0 12 41 71 48 67 4 -2 62 -37 130 -76z m-3619 -48 l22
-33 -128 -85 -128 -85 -22 28 c-13 15 -23 32 -23 37 0 9 251 179 255 173 1 -2
12 -18 24 -35z m3946 -169 c63 -48 115 -92 115 -98 -1 -12 -35 -56 -44 -56 -3
0 -60 40 -126 88 l-119 88 22 32 c12 17 25 32 30 32 4 0 59 -39 122 -86z
m-4272 -52 l27 -28 -102 -84 c-149 -124 -136 -118 -164 -84 -13 16 -22 32 -21
35 3 9 220 189 227 189 4 0 18 -13 33 -28z m4578 -204 l109 -102 -30 -30 -30
-30 -42 39 c-24 22 -73 69 -110 104 l-67 64 22 28 c12 15 26 28 30 28 5 1 58
-45 118 -101z m-4956 -188 l-110 -110 -30 30 -30 30 110 110 110 110 30 -30
30 -30 -110 -110z m5230 -98 l98 -114 -29 -23 c-16 -14 -32 -24 -35 -25 -4 0
-45 44 -90 98 -124 143 -115 127 -82 156 15 14 31 24 34 23 3 -1 50 -53 104
-115z m-5424 -43 c16 -11 29 -25 29 -30 0 -5 -39 -60 -87 -122 -47 -61 -88
-114 -89 -116 -5 -6 -55 29 -60 44 -4 10 161 243 174 244 2 1 17 -8 33 -20z
m3440 -93 c160 -34 252 -122 279 -264 6 -33 5 -49 -3 -54 -7 -4 -58 -8 -114
-8 l-102 0 -11 39 c-13 48 -66 98 -116 107 -57 11 -168 -1 -202 -21 -39 -24
-59 -67 -46 -103 14 -39 72 -67 225 -107 175 -46 253 -79 310 -132 66 -62 93
-127 93 -228 1 -68 -3 -89 -27 -136 -15 -31 -49 -77 -75 -101 -150 -140 -505
-139 -665 2 -44 38 -105 157 -113 221 l-6 47 38 6 c22 3 71 8 109 11 l70 7 12
-44 c29 -108 107 -163 228 -162 127 1 205 57 205 147 0 30 -7 45 -29 66 -29
27 -49 34 -269 95 -129 36 -195 71 -251 132 -132 144 -83 367 99 448 33 15 79
31 102 35 68 14 187 12 259 -3z m-2396 -46 c177 -91 206 -299 60 -428 l-45
-40 54 -31 c91 -51 135 -127 136 -233 0 -118 -72 -235 -172 -278 -70 -30 -186
-39 -495 -40 l-253 0 0 546 0 545 324 -3 323 -3 68 -35z m1435 -55 l0 -95
-295 0 -295 0 0 -115 0 -115 275 0 275 0 0 -95 0 -95 -275 0 -275 0 0 -145 0
-145 305 0 305 0 0 -95 0 -95 -415 0 -415 0 0 545 0 545 405 0 405 0 0 -95z
m2490 0 l0 -95 -160 0 -160 0 -2 -447 -3 -448 -112 -3 -113 -3 0 451 0 450
-160 0 -160 0 0 95 0 95 435 0 435 0 0 -95z m708 -97 l72 -107 -36 -21 c-41
-26 -28 -39 -136 123 -57 87 -69 111 -58 117 8 5 24 15 34 23 24 17 19 22 124
-135z m-5907 -25 c16 -10 29 -20 29 -24 0 -12 -150 -254 -158 -254 -17 1 -62
29 -62 39 0 9 42 82 127 219 13 20 26 37 29 37 3 0 19 -8 35 -17z m6159 -420
c0 -16 -60 -47 -70 -36 -5 4 -38 65 -75 135 l-66 127 38 19 38 20 67 -127 c37
-69 67 -132 68 -138z m-6355 83 l35 -15 -29 -63 c-16 -35 -45 -98 -64 -141
l-36 -77 -35 17 c-20 9 -36 20 -36 24 0 7 93 216 111 252 12 21 11 21 54 3z
m6454 -309 c28 -73 51 -138 51 -143 0 -9 -71 -38 -76 -31 -5 7 -104 269 -104
276 0 10 39 29 61 30 12 1 31 -36 68 -132z m-6610 -48 c17 -6 31 -12 31 -14 0
-2 -21 -67 -46 -145 l-45 -142 -32 6 c-17 4 -35 10 -40 15 -7 7 63 255 80 284
6 10 14 9 52 -4z m6733 -331 c21 -79 34 -146 30 -150 -4 -4 -23 -9 -41 -10
l-34 -3 -32 120 c-18 66 -35 130 -39 143 -6 17 -3 24 16 31 59 24 61 22 100
-131z m-6833 -47 c13 -8 10 -31 -15 -153 l-30 -143 -39 3 c-22 2 -41 5 -43 7
-3 2 33 182 53 273 4 16 13 22 33 22 15 0 33 -4 41 -9z m3881 -53 c70 -32 117
-79 148 -146 13 -29 22 -55 21 -56 -7 -5 -137 -36 -151 -36 -7 0 -21 18 -31
40 -46 100 -198 117 -280 32 -47 -49 -60 -97 -61 -212 0 -92 4 -113 26 -161
30 -66 77 -100 147 -107 85 -8 152 40 180 129 l12 37 76 -24 c41 -13 78 -25
80 -28 10 -10 -32 -101 -68 -147 -25 -31 -58 -57 -96 -75 -53 -26 -68 -29
-163 -29 -94 0 -111 3 -161 28 -66 32 -142 109 -170 171 -32 73 -44 182 -31
277 32 224 170 344 387 336 60 -2 93 -9 135 -29z m1595 3 c27 -12 60 -32 73
-44 34 -31 62 -91 65 -135 l2 -37 -82 -3 -81 -3 -7 29 c-11 53 -47 76 -123 80
-85 4 -135 -18 -140 -61 -5 -42 22 -65 102 -88 39 -11 108 -32 153 -46 139
-43 202 -117 203 -237 0 -114 -68 -200 -185 -231 -95 -26 -243 -18 -310 17
-81 42 -130 109 -150 205 -7 36 -6 37 95 47 l55 6 25 -53 c37 -78 76 -100 168
-95 64 3 75 7 101 33 45 46 49 78 14 114 -17 16 -50 35 -74 41 -165 43 -201
54 -245 80 -140 80 -154 264 -27 354 60 42 123 56 228 52 65 -2 104 -9 140
-25z m-3995 -8 c49 -22 95 -69 117 -120 7 -18 13 -66 13 -106 0 -90 -26 -146
-88 -194 -52 -40 -115 -53 -252 -53 l-110 0 0 -150 0 -150 -80 0 -80 0 0 401
0 402 218 -5 c190 -4 223 -7 262 -25z m1595 -340 c82 -203 155 -383 162 -401
l14 -33 -92 3 -91 3 -35 88 -35 87 -157 0 -157 0 -33 -90 -33 -90 -84 0 c-50
0 -84 4 -84 10 0 11 285 742 301 772 8 15 22 18 93 18 l83 0 148 -367z m1755
297 l0 -70 -215 0 -215 0 0 -85 0 -85 200 0 200 0 0 -70 0 -70 -200 0 -200 0
0 -105 0 -105 225 0 225 0 0 -70 0 -70 -305 0 -305 0 0 400 0 400 295 0 295 0
0 -70z m-2870 -265 l0 -325 200 0 200 0 0 -70 0 -70 -280 0 -280 0 0 395 0
395 80 0 80 0 0 -325z m4938 113 c31 -182 35 -230 21 -239 -12 -8 -68 -13 -70
-6 0 1 -10 68 -22 149 -25 161 -26 154 34 157 25 1 28 -3 37 -61z m-6961 -132
c4 -4 -14 -232 -23 -273 -4 -19 -11 -23 -44 -23 -47 0 -44 -13 -29 160 14 160
12 154 55 147 20 -4 38 -8 41 -11z m7006 -263 c4 -38 7 -107 7 -155 l0 -88
-39 0 c-35 0 -39 3 -45 31 -3 17 -6 87 -6 155 l0 124 39 0 38 0 6 -67z m-7031
-253 c0 -77 1 -146 2 -152 1 -8 -15 -14 -40 -16 l-41 -3 -5 148 c-3 81 -4 151
-1 156 2 4 22 7 44 7 l39 0 2 -140z m7034 -137 c-3 -38 -9 -108 -12 -157 l-7
-88 -39 5 c-22 3 -41 7 -43 9 -1 1 2 69 8 151 l11 147 44 0 45 0 -7 -67z
m-3198 7 c107 -47 163 -139 170 -280 3 -71 0 -95 -18 -144 -70 -186 -297 -253
-458 -136 -108 78 -150 251 -97 399 56 158 242 232 403 161z m-470 -22 l3 -38
-105 0 -106 0 0 -275 0 -275 -45 0 -45 0 0 275 0 275 -100 0 -100 0 0 40 0 40
248 -2 247 -3 3 -37z m-3354 -125 c3 -16 12 -82 21 -147 16 -132 15 -136 -41
-136 l-30 0 -18 146 c-20 160 -19 164 36 164 21 0 28 -6 32 -27z m2567 -22
c11 -18 28 -30 49 -35 l33 -6 -24 -26 c-17 -19 -23 -34 -20 -61 2 -32 1 -35
-16 -28 -23 11 -62 11 -90 1 -21 -7 -23 -4 -23 27 0 19 -9 46 -20 60 l-21 26
34 6 c23 5 39 16 51 36 21 36 27 36 47 0z m1755 0 c12 -20 28 -31 51 -36 l34
-6 -21 -29 c-11 -15 -20 -42 -20 -60 0 -27 -3 -31 -17 -24 -23 10 -73 10 -97
-1 -17 -7 -18 -5 -13 26 4 27 0 40 -21 61 l-26 28 34 6 c21 5 38 17 49 35 20
36 26 36 47 0z m-2036 -66 l0 -25 -605 0 -605 0 0 25 0 25 605 0 605 0 0 -25z
m3430 0 l0 -25 -605 0 -605 0 0 25 0 25 605 0 605 0 0 -25z m1246 -95 c30 0
30 0 -2 -171 l-26 -138 -32 5 c-17 3 -36 7 -42 9 -8 2 -6 33 8 102 38 201 39
205 55 199 8 -3 26 -6 39 -6z m-6877 -307 c19 -76 36 -143 38 -149 2 -6 -14
-16 -37 -22 -31 -7 -42 -7 -45 1 -3 7 -20 74 -39 150 l-34 137 32 9 c17 5 36
10 41 10 6 1 26 -61 44 -136z m6790 -74 c17 -6 31 -15 31 -21 0 -6 -19 -70
-42 -144 -44 -142 -47 -145 -101 -125 l-25 10 46 145 c25 80 49 146 52 146 4
0 21 -5 39 -11z m-3717 -158 c189 -66 288 -226 288 -466 0 -164 -40 -274 -132
-365 -84 -83 -183 -119 -328 -120 -196 0 -343 83 -415 235 -35 76 -47 137 -48
250 0 171 42 283 140 376 56 53 132 94 205 109 68 14 225 4 290 -19z m-1807
-307 c38 -174 71 -310 74 -303 3 8 41 149 85 314 l81 300 119 0 120 0 76 -305
c42 -168 79 -311 81 -319 3 -8 36 126 74 298 38 171 72 316 75 322 4 6 46 9
102 7 l95 -3 -112 -455 c-61 -250 -114 -463 -118 -473 -6 -16 -18 -17 -109
-15 l-101 3 -91 338 c-49 185 -92 337 -96 337 -3 0 -46 -152 -96 -337 l-90
-338 -106 -3 c-95 -2 -107 -1 -112 15 -2 10 -52 218 -111 463 -58 245 -108
451 -110 458 -3 9 21 12 98 12 l103 0 69 -316z m3015 290 c51 -23 105 -80 128
-133 25 -59 20 -170 -9 -228 -29 -56 -92 -107 -152 -124 -61 -18 -62 -23 -18
-53 22 -16 57 -51 79 -80 44 -60 192 -290 192 -299 0 -4 -52 -7 -114 -7 l-115
0 -110 163 c-61 89 -123 175 -140 191 -29 28 -83 45 -148 46 l-33 0 0 -200 0
-200 -100 0 -100 0 0 476 0 476 298 -4 c276 -3 300 -4 342 -24z m662 -175 l3
-202 185 201 185 201 133 1 134 0 -176 -181 c-97 -100 -176 -185 -176 -189 0
-4 83 -134 185 -289 102 -156 185 -284 185 -287 0 -2 -56 -4 -125 -4 l-124 0
-117 198 c-64 108 -123 208 -131 221 l-15 23 -74 -73 -73 -73 -3 -145 -3 -146
-97 -3 -98 -3 0 476 0 475 100 0 100 0 2 -201z m-4829 51 c25 -69 47 -131 49
-139 2 -8 -12 -19 -35 -27 -34 -12 -39 -12 -45 4 -3 9 -27 73 -53 142 l-48
125 37 17 c20 9 40 14 43 10 4 -4 27 -63 52 -132z m6558 -76 c17 -8 28 -21 26
-27 -25 -61 -111 -254 -116 -259 -3 -4 -23 1 -43 10 l-37 17 61 138 c34 75 65
137 70 137 5 0 23 -7 39 -16z m-6402 -282 l70 -139 -35 -16 c-19 -10 -37 -17
-39 -17 -6 0 -135 257 -135 268 0 6 49 37 67 41 2 1 34 -61 72 -137z m6238
-72 l32 -19 -74 -128 c-41 -70 -78 -129 -82 -130 -4 -2 -22 6 -40 17 l-32 19
76 131 c42 71 79 130 82 130 3 0 21 -9 38 -20z m-6047 -257 c41 -64 76 -122
78 -128 2 -7 -12 -22 -30 -33 l-33 -21 -82 127 -83 127 28 22 c15 13 32 23 37
22 6 0 44 -52 85 -116z m5841 -74 c16 -11 29 -24 29 -28 0 -9 -168 -235 -178
-238 -4 -2 -20 8 -36 21 l-30 23 89 122 c49 66 90 121 93 121 2 0 17 -9 33
-21z m-5607 -245 l95 -116 -28 -24 c-16 -13 -31 -24 -35 -24 -3 0 -49 52 -102
116 l-97 116 29 23 c16 14 32 24 36 25 3 0 49 -52 102 -116z m5375 -68 c20
-22 21 -27 10 -44 -26 -36 -187 -202 -196 -202 -5 0 -20 11 -32 24 l-23 25 20
25 c42 55 178 195 188 195 6 1 21 -10 33 -23z m-5009 -322 c0 -6 -11 -21 -25
-34 l-24 -23 -58 51 c-32 28 -83 75 -113 106 l-54 56 28 29 29 30 108 -102
c60 -56 109 -107 109 -113z m4738 37 l22 -30 -103 -89 c-56 -48 -108 -92 -115
-96 -15 -9 -63 29 -61 48 1 13 210 195 225 195 5 1 20 -12 32 -28z m-4548
-182 l119 -92 -20 -28 c-11 -16 -23 -30 -27 -33 -6 -4 -205 143 -236 174 -8 8
28 70 40 70 3 0 59 -41 124 -91z m4244 -64 c9 -13 16 -29 16 -34 0 -11 -233
-171 -248 -171 -11 0 -45 60 -37 68 18 19 232 161 241 162 7 0 19 -11 28 -25z
m-3926 -154 c67 -41 122 -78 122 -83 0 -5 -8 -21 -17 -36 -9 -15 -18 -28 -18
-30 -2 -3 -246 145 -256 155 -9 9 29 76 40 71 4 -2 62 -36 129 -77z m3599 -66
c9 -19 15 -37 12 -39 -9 -8 -253 -136 -261 -136 -13 0 -40 62 -31 71 11 11
245 137 256 138 4 1 15 -15 24 -34z m-3265 -111 c67 -31 127 -60 132 -65 7 -6
-6 -58 -20 -77 -2 -3 -198 85 -256 114 -27 14 -28 14 -11 49 9 19 20 35 24 35
4 0 63 -25 131 -56z m2917 -70 c7 -19 11 -37 9 -38 -10 -8 -265 -106 -275
-106 -11 0 -39 68 -31 74 7 7 264 106 273 106 6 0 17 -16 24 -36z m-2547 -80
c76 -25 138 -49 138 -53 0 -23 -24 -72 -34 -68 -6 2 -71 24 -143 48 -74 24
-133 49 -133 56 0 19 19 63 27 63 4 0 70 -21 145 -46z m2188 -84 c0 -12 -39
-25 -166 -54 -92 -21 -170 -34 -174 -29 -4 4 -11 22 -14 39 l-7 32 158 37 c87
20 163 38 168 39 11 4 34 -39 35 -64z m-1681 -45 c10 -4 11 -15 6 -43 -4 -20
-8 -38 -9 -40 -2 -1 -69 12 -149 29 -158 34 -157 34 -141 95 l6 21 136 -29
c75 -15 143 -31 151 -33z m1234 -2 c3 -5 7 -24 9 -43 l3 -34 -170 -23 c-93
-12 -173 -19 -176 -15 -4 4 -9 23 -11 42 l-3 35 155 21 c187 26 188 26 193 17z
m-982 -28 c78 -8 144 -17 147 -20 2 -2 1 -20 -2 -40 -8 -41 -8 -41 -196 -22
-80 8 -115 16 -114 25 1 6 2 26 3 42 0 17 5 30 10 30 5 0 73 -7 152 -15z m579
-60 l0 -45 -175 0 -175 0 0 45 0 45 175 0 175 0 0 -45z"/>
<path d="M1620 5559 l0 -121 163 4 c131 3 168 7 194 21 58 31 78 99 48 157
-27 53 -56 60 -240 60 l-165 0 0 -121z"/>
<path d="M1620 5111 l0 -141 158 0 c86 0 175 5 196 10 115 26 141 172 43 244
-26 19 -45 21 -213 24 l-184 4 0 -141z"/>
<path d="M1540 4300 l0 -110 90 0 c137 0 190 31 190 112 0 77 -57 107 -202
108 l-78 0 0 -110z"/>
<path d="M3171 4217 c-25 -67 -46 -128 -49 -134 -3 -10 20 -13 97 -13 56 0
101 3 101 6 0 13 -95 264 -100 264 -3 0 -25 -55 -49 -123z"/>
<path d="M3915 3481 c-102 -46 -149 -177 -114 -315 44 -174 280 -213 373 -63
37 60 47 165 23 248 -36 121 -167 182 -282 130z"/>
<path d="M3194 2524 c-54 -19 -111 -75 -137 -133 -25 -57 -34 -203 -18 -283
27 -129 122 -208 250 -208 112 1 181 45 229 148 24 51 27 68 27 172 0 103 -3
121 -26 170 -14 30 -41 69 -59 87 -61 59 -175 79 -266 47z"/>
<path d="M4230 2408 l0 -121 148 6 c86 3 159 11 175 18 56 26 76 122 37 172
-29 37 -76 47 -227 47 l-133 0 0 -122z"/>
</g>
</svg>
